<svg width="139" height="67" fill="none" xmlns="http://www.w3.org/2000/svg"><path d="M33.788 66c-.632 0-1.157-.052-1.573-.156a4.372 4.372 0 01-1.69-.871 4.562 4.562 0 01-1.183-1.534 4.457 4.457 0 01-.429-1.924c0-.685.143-1.326.43-1.924a4.397 4.397 0 011.182-1.534 4.143 4.143 0 011.703-.871c.407-.104.928-.156 1.56-.156h.13v2.145h-.13c-.702 0-1.26.143-1.677.429a2.2 2.2 0 00-.715.819 2.318 2.318 0 000 2.184c.182.347.42.62.715.819.416.286.975.429 1.677.429h.13V66h-.13zm9.546-2.782c0-1.387.269-2.54.806-3.458a4.93 4.93 0 012.236-2.054c.954-.45 2.063-.676 3.328-.676V66h-2.21v-1.3h-1.95V66h-2.21v-2.782zm4.16-.663v-2.938c-1.144.45-1.785 1.43-1.924 2.938h1.924zm11.682 1.3h2.64c.26 0 .454-.052.584-.156a.545.545 0 00.026-.832 1.044 1.044 0 00-.429-.273 18.728 18.728 0 01-1.443-.52 2.239 2.239 0 01-.702-.494c-.468-.477-.702-1.096-.702-1.859 0-.676.178-1.248.533-1.716.364-.477.85-.776 1.456-.897.173-.035.373-.056.598-.065.234-.009.49-.013.767-.013h1.21v2.145h-1.665c-.225 0-.398.052-.52.156a.524.524 0 00-.169.403c0 .347.195.576.585.689.572.165 1.005.308 1.3.429.303.121.568.277.793.468.26.225.455.507.585.845.13.33.195.685.195 1.066 0 .537-.121 1.018-.364 1.443a2.577 2.577 0 01-1 .975 2.762 2.762 0 01-1.379.351h-2.899v-2.145zM74.18 57.03h2.21V66h-2.21v-8.97zm11.702 0c.876 0 1.669.134 2.38.403a5.18 5.18 0 011.845 1.144V57.03h2.21V66h-2.21v-2.782c0-1.863-.671-3.016-2.015-3.458V66h-2.21v-8.97zm20.494 9.165a4.642 4.642 0 01-2.366-.624 4.615 4.615 0 01-1.69-1.703 4.642 4.642 0 01-.624-2.366c0-.85.208-1.63.624-2.34a4.615 4.615 0 011.69-1.703 4.642 4.642 0 012.366-.624c.858 0 1.646.208 2.366.624a4.59 4.59 0 011.703 1.703c.424.71.637 1.49.637 2.34 0 .858-.213 1.647-.637 2.366a4.59 4.59 0 01-1.703 1.703 4.644 4.644 0 01-2.366.624zm.013-2.158a2.39 2.39 0 001.235-.338c.381-.225.684-.529.91-.91.225-.39.338-.81.338-1.261 0-.45-.113-.867-.338-1.248a2.625 2.625 0 00-.91-.936 2.32 2.32 0 00-1.235-.351 2.34 2.34 0 00-1.248.351 2.505 2.505 0 00-.91.923 2.55 2.55 0 00-.325 1.261c0 .45.108.871.325 1.261.225.381.528.685.91.91a2.41 2.41 0 001.248.338z" fill="#E44F5B"/><path d="M138.5 2h-29v10.5H121l-15 30h32.5V32H124l14.5-30zm-34 0h-29v10.5H87l-15 30h32.5V32H90l14.5-30zM27 2H15.5v28.5c0 1-.6 3-3 3s-3-2-3-3H0c.667 4.333 4.1 13 12.5 13 10.5 0 14.5-8 14.5-13V2z" fill="#fff"/><path d="M52.5 0C39.519 0 29 10.519 29 23.5S39.519 47 52.5 47 76 36.481 76 23.5 65.481 0 52.5 0zm1.808 1.9a21.51 21.51 0 017.42 1.997l-2.715 4.704a16.193 16.193 0 00-4.707-1.264V1.9h.002zm-3.616 0v5.437a16.25 16.25 0 00-4.707 1.264L43.27 3.897A21.53 21.53 0 0150.692 1.9zM40.135 5.7l2.728 4.721a16.373 16.373 0 00-3.44 3.44l-4.721-2.727A21.86 21.86 0 0140.135 5.7zm-7.238 8.572l4.704 2.715a16.195 16.195 0 00-1.264 4.707H30.9c.219-2.64.918-5.137 1.997-7.422zM30.9 25.308h5.437c.187 1.655.62 3.237 1.264 4.707l-4.704 2.715a21.53 21.53 0 01-1.997-7.422zM40.135 41.3a21.844 21.844 0 01-5.435-5.435l4.721-2.728a16.38 16.38 0 003.44 3.44L40.135 41.3zm10.557 3.8a21.509 21.509 0 01-7.42-1.997l2.715-4.704a16.2 16.2 0 004.707 1.264V45.1h-.002zM38.038 23.5c0-7.976 6.487-14.462 14.462-14.462S66.962 15.524 66.962 23.5 60.474 37.962 52.5 37.962 38.038 31.474 38.038 23.5zm16.27 21.6v-5.437a16.252 16.252 0 004.707-1.264l2.715 4.704a21.529 21.529 0 01-7.422 1.997zm10.557-3.8l-2.728-4.721a16.373 16.373 0 003.44-3.44l4.722 2.727a21.861 21.861 0 01-5.434 5.434zm7.238-8.572l-4.704-2.715a16.195 16.195 0 001.264-4.707H74.1a21.507 21.507 0 01-1.997 7.422zM74.1 21.692h-5.437a16.252 16.252 0 00-1.264-4.707l4.704-2.715a21.53 21.53 0 011.997 7.422zm-8.523-7.829a16.376 16.376 0 00-3.44-3.44l2.728-4.722a21.844 21.844 0 015.435 5.436l-4.723 2.726z" fill="#E44F5B"/><path d="M55.438 20.177L52.5 14.228l-2.937 5.95-6.566.954 4.75 4.633-1.12 6.54 5.873-3.087 5.873 3.087-1.12-6.54 4.75-4.633-6.565-.955zm.535 8.824L52.5 27.175 49.028 29l.661-3.867-2.809-2.74 3.881-.566 1.74-3.516 1.736 3.518 3.881.565-2.809 2.74.664 3.866z" fill="#E44F5B"/></svg>